<svg width="650" height="651" viewBox="0 0 650 651" fill="none" xmlns="http://www.w3.org/2000/svg">
<rect width="650" height="651" fill="white"/>
<path d="M278.5 196H290.5V320.623C290.5 358.35 318.217 389.604 354.4 395.132C357.693 386.639 359.5 377.406 359.5 367.75V243.5H371.5H412H440.5H454H465.812H477.625C465.812 243.5 454 243.5 454 266.5V282.75V299V319.75C454 368.213 414.713 407.5 366.25 407.5C364.758 407.5 363.275 407.463 361.802 407.389C347.232 435.664 317.749 455 283.75 455C235.287 455 196 415.713 196 367.25V281.625V219C196 196 172.375 196 172.375 196H196H278.5Z" fill="black"/>
<path d="M278.5 196V319.75C278.5 368.213 317.787 407.5 366.25 407.5V407.5C414.713 407.5 454 368.213 454 319.75V299V282.75V266.5C454 243.5 465.812 243.5 477.625 243.5H465.812H454M278.5 196H290.5M278.5 196H196H172.375C172.375 196 196 196 196 219V281.625V367.25C196 415.713 235.287 455 283.75 455C332.213 455 371.5 415.713 371.5 367.25V305.375V243.5M454 243.5H440.5M454 243.5H412M290.5 196V320.623C290.5 362.252 324.248 396 365.877 396V396C407.797 396 441.664 361.799 441.251 319.881L440.5 243.5M290.5 196L249.25 219.75L208 243.5V367.75C208 409.586 241.914 443.5 283.75 443.5C325.586 443.5 359.5 409.586 359.5 367.75C359.5 367.75 359.5 367.75 359.5 367.75C359.5 367.75 359.5 292.023 359.5 243.5C364.186 243.5 371.5 243.5 371.5 243.5M440.5 243.5H412M371.5 243.5H412" stroke="black"/>
</svg>
