<svg width="306" height="260" viewBox="0 0 306 260" fill="none" xmlns="http://www.w3.org/2000/svg">
<path d="M106.875 0.5H118.875V125.123C118.875 162.85 146.592 194.104 182.775 199.632C186.068 191.139 187.875 181.906 187.875 172.25V48H199.875H240.375H268.875H282.375H294.188H306C294.188 48 282.375 48 282.375 71V87.25V103.5V124.25C282.375 172.713 243.088 212 194.625 212C193.133 212 191.65 211.963 190.177 211.889C175.607 240.164 146.124 259.5 112.125 259.5C63.662 259.5 24.375 220.213 24.375 171.75V86.125V23.5C24.375 0.5 0.75 0.5 0.75 0.5H24.375H106.875Z" fill="white"/>
<path d="M106.875 0.5V124.25C106.875 172.713 146.162 212 194.625 212V212C243.088 212 282.375 172.713 282.375 124.25V103.5V87.25V71C282.375 48 294.188 48 306 48H294.188H282.375M106.875 0.5H118.875M106.875 0.5H24.375H0.75C0.75 0.5 24.375 0.5 24.375 23.5V86.125V171.75C24.375 220.213 63.662 259.5 112.125 259.5C160.588 259.5 199.875 220.213 199.875 171.75V109.875V48M282.375 48H268.875M282.375 48H240.375M118.875 0.5V125.123C118.875 166.752 152.623 200.5 194.252 200.5V200.5C236.172 200.5 270.039 166.299 269.626 124.381L268.875 48M118.875 0.5L77.625 24.25L36.375 48V172.25C36.375 214.086 70.2894 248 112.125 248C153.961 248 187.875 214.086 187.875 172.25C187.875 172.25 187.875 172.25 187.875 172.25C187.875 172.25 187.875 96.5227 187.875 48C192.561 48 199.875 48 199.875 48M268.875 48H240.375M199.875 48H240.375" stroke="white"/>
</svg>
